<?xml version="1.0" encoding="iso-8859-1"?>
<!DOCTYPE svg PUBLIC "-//W3C//DTD SVG 1.1//EN" "http://www.w3.org/Graphics/SVG/1.1/DTD/svg11.dtd">
<svg 
 version="1.1" xmlns="http://www.w3.org/2000/svg" xmlns:xlink="http://www.w3.org/1999/xlink" x="0px" y="0px" width="512px"
	 height="512px" viewBox="0 0 512 512" style="enable-background:new 0 0 512 512;" xml:space="preserve"
><g id="afcae5a789ccd549f9c6e2a2f80fc98a"><g></g><path style="display: inline;" d="M256,0.5C114.893,0.5,0.5,114.893,0.5,256c0,141.106,114.393,255.5,255.5,255.5
		c141.106,0,255.5-114.394,255.5-255.5C511.5,114.893,397.106,0.5,256,0.5z M467.304,230.234
		c-26.848,12.866-54.793,23.286-83.612,31.031c0.017-1.755,0.059-3.503,0.059-5.262c0-66.69-12.309-131.477-35.671-191.902
		C412.108,94.953,458.411,156.891,467.304,230.234z M467.304,230.258 M256,43.083c22.909,0,47.614,5.215,38.258,3.51
		c30.675,64.657,46.909,135.788,46.909,209.411c0,4.921-0.092,9.827-0.241,14.726c-27.771,4.841-56.157,7.311-84.926,7.311
		c-28.76,0-57.155-2.47-84.926-7.311c-0.141-4.898-0.241-9.805-0.241-14.726c0-73.623,16.243-144.754,46.917-209.411
		C208.385,48.298,233.09,43.083,256,43.083z M163.921,64.1c-23.363,60.426-35.671,125.213-35.671,191.904
		c0,1.759,0.05,3.507,0.066,5.262c-28.818-7.745-56.772-18.165-83.62-31.031C53.588,156.887,99.891,94.949,163.921,64.1z
		 M44.697,230.258 M43.376,266.847c0.172,3.354,0.422,6.688,0.747,10c27.871,12.105,56.772,21.795,86.447,28.939
		c4.533,49.154,15.836,96.886,33.334,142.163C95.564,415.026,47.4,346.661,43.376,266.847z M256,468.917
		c-13.07,0-25.85-1.248-38.275-3.515c-22.473-47.378-37.193-98.231-43.439-151.008c26.805,4.108,54.094,6.229,81.715,6.229
		s54.918-2.121,81.715-6.229c-6.237,52.776-20.968,103.63-43.44,151.008C281.849,467.669,269.07,468.917,256,468.917z
		 M348.095,447.949c17.507-45.277,28.803-93.009,33.343-142.163c29.676-7.145,58.569-16.834,86.448-28.939
		C460.512,352.345,413.563,416.411,348.095,447.949z"></path></g></svg>